<svg xmlns="http://www.w3.org/2000/svg" viewBox="0 0 30 30"><defs><style>.cls-1{fill:#565656;}</style></defs><title>Recurso 9</title><g id="Capa_2" data-name="Capa 2"><g id="mapa"><g id="Capa_10" data-name="Capa 10"><path class="cls-1" d="M27.86,12.62H17.38V2.14A2.14,2.14,0,0,0,15.24,0h-.48a2.14,2.14,0,0,0-2.14,2.14V12.62H2.14A2.14,2.14,0,0,0,0,14.76v.48a2.14,2.14,0,0,0,2.14,2.14H12.62V27.86A2.14,2.14,0,0,0,14.76,30h.48a2.14,2.14,0,0,0,2.14-2.14V17.38H27.86A2.14,2.14,0,0,0,30,15.24v-.48A2.14,2.14,0,0,0,27.86,12.62Z"/></g></g></g></svg>