<svg xmlns="http://www.w3.org/2000/svg" viewBox="0 0 23.03 22"><defs><style>.cls-1{fill:#565656;}</style></defs><title>Recurso 4</title><g id="Capa_2" data-name="Capa 2"><g id="menu-menu"><g id="Capa_15" data-name="Capa 15"><path class="cls-1" d="M21.85,7.37l-6.29-.92L12.75.77a1.38,1.38,0,0,0-2.47,0L7.47,6.45l-6.29.91A1.37,1.37,0,0,0,.42,9.71L5,14.14,3.89,20.39A1.38,1.38,0,0,0,5.25,22a1.36,1.36,0,0,0,.64-.16l5.63-3,5.63,3a1.37,1.37,0,0,0,2-1.45l-1.08-6.25,4.55-4.42a1.37,1.37,0,0,0-.76-2.35Z"/></g></g></g></svg>