<svg xmlns="http://www.w3.org/2000/svg" viewBox="0 0 22.5 20"><defs><style>.cls-1{fill:#565656;}</style></defs><title>Recurso 7</title><g id="Capa_2" data-name="Capa 2"><g id="menu-menu"><g id="Capa_15" data-name="Capa 15"><path class="cls-1" d="M11.25,0A4.92,4.92,0,0,0,6.33,4.92c0,2.2,3.22,6.2,4.45,7.66a.62.62,0,0,0,.95,0c1.23-1.45,4.45-5.46,4.45-7.66A4.92,4.92,0,0,0,11.25,0Zm0,6.56a1.64,1.64,0,1,1,1.64-1.64A1.64,1.64,0,0,1,11.25,6.56ZM.79,8.44A1.25,1.25,0,0,0,0,9.6v9.78A.63.63,0,0,0,.86,20L6.25,17.5V8.4a11.83,11.83,0,0,1-.83-1.81ZM11.25,14a1.87,1.87,0,0,1-1.43-.66c-.77-.91-1.58-1.94-2.32-3V17.5L15,20V10.39c-.74,1.06-1.56,2.09-2.32,3A1.87,1.87,0,0,1,11.25,14ZM21.64,6.3,16.25,8.75V20l5.46-2.19a1.25,1.25,0,0,0,.79-1.16V6.88a.63.63,0,0,0-.86-.58Z"/></g></g></g></svg>