<svg xmlns="http://www.w3.org/2000/svg" viewBox="0 0 30 30"><defs><style>.cls-1{fill:#5699e2;}</style></defs><title>siplujaRecurso 9</title><g id="Capa_2" data-name="Capa 2"><g id="Capa_1-2" data-name="Capa 1"><path class="cls-1" d="M24.38,7.5h-.09a4.58,4.58,0,0,0,.09-.95,4.67,4.67,0,0,0-8.26-3,6.54,6.54,0,0,0-12.36,3A6.66,6.66,0,0,0,3.87,7.8,5.61,5.61,0,0,0,5.63,18.75H24.38a5.63,5.63,0,0,0,0-11.25ZM5.16,21.93c-.75,2.6-2.34,3.3-2.34,5.14A2.88,2.88,0,0,0,5.63,30a2.88,2.88,0,0,0,2.81-2.94c0-1.84-1.59-2.53-2.34-5.14A.48.48,0,0,0,5.16,21.93Zm9.38,0c-.75,2.6-2.34,3.3-2.34,5.14a2.82,2.82,0,1,0,5.63,0c0-1.84-1.59-2.53-2.34-5.14A.48.48,0,0,0,14.53,21.93Zm9.38,0c-.75,2.6-2.34,3.3-2.34,5.14a2.82,2.82,0,1,0,5.63,0c0-1.84-1.59-2.53-2.34-5.14A.48.48,0,0,0,23.91,21.93Z"/></g></g></svg>