<svg xmlns="http://www.w3.org/2000/svg" viewBox="0 0 40 40.01"><defs><style>.cls-1{fill:#2f2e2d;}</style></defs><title>Recurso 11</title><g id="Capa_2" data-name="Capa 2"><g id="mapa"><g id="Capa_7" data-name="Capa 7"><path class="cls-1" d="M39.46,34.59,31.67,26.8a1.87,1.87,0,0,0-1.33-.55H29.06a16.24,16.24,0,1,0-2.81,2.81v1.27a1.87,1.87,0,0,0,.55,1.33l7.79,7.79a1.87,1.87,0,0,0,2.65,0l2.21-2.21A1.88,1.88,0,0,0,39.46,34.59Zm-23.2-8.34a10,10,0,1,1,10-10A10,10,0,0,1,16.25,26.25Z"/></g></g></g></svg>