<svg xmlns="http://www.w3.org/2000/svg" viewBox="0 0 25.05 23.98"><defs><style>.cls-1{fill:#dddc2e;stroke:#565656;stroke-miterlimit:10;stroke-width:0.05px;}</style></defs><title>Recurso 15</title><g id="Capa_2" data-name="Capa 2"><g id="registre"><path class="cls-1" d="M23.74,8,16.92,7,13.87.86a1.5,1.5,0,0,0-2.68,0L8.13,7,1.31,8a1.5,1.5,0,0,0-.83,2.55L5.42,15.4,4.25,22.2a1.49,1.49,0,0,0,2.17,1.57l6.11-3.21,6.11,3.21A1.5,1.5,0,0,0,20.8,22.2l-1.17-6.8,4.94-4.81A1.5,1.5,0,0,0,23.74,8Zm-6.52,6.58,1.11,6.47L12.53,18,6.72,21.09l1.11-6.47L3.12,10l6.5-.94,2.91-5.89L15.43,9.1l6.5.94-4.7,4.58Z"/></g></g></svg>