<svg xmlns="http://www.w3.org/2000/svg" viewBox="0 0 15 30"><defs><style>.cls-1{fill:#5699e2;}</style></defs><title>Recurso 3</title><g id="Capa_2" data-name="Capa 2"><g id="Capa_1-2" data-name="Capa 1"><path class="cls-1" d="M11.25,22.5a3.75,3.75,0,1,1-5.62-3.25V13.13a1.87,1.87,0,0,1,3.75,0v6.13A3.75,3.75,0,0,1,11.25,22.5Zm1.88-5A7.5,7.5,0,0,1,7.5,30H7.45A7.5,7.5,0,0,1,1.87,17.54V5.63a5.62,5.62,0,1,1,11.25,0Zm-.94,5a5.44,5.44,0,0,0-1.87-3.9v-13a2.81,2.81,0,1,0-5.62,0v13a5.45,5.45,0,0,0-1.87,3.87,4.71,4.71,0,0,0,4.65,4.71h0A4.69,4.69,0,0,0,12.19,22.5Z"/></g></g></svg>