<svg xmlns="http://www.w3.org/2000/svg" viewBox="0 0 30 26.25"><defs><style>.cls-1{fill:#5699e2;}</style></defs><title>siRecurso 7</title><g id="Capa_2" data-name="Capa 2"><g id="Capa_1-2" data-name="Capa 1"><path class="cls-1" d="M9.18,13.12H.94a.94.94,0,0,0-.94.94v1.87a.94.94,0,0,0,.94.94H9.27a2,2,0,0,1,2,1.56,1.88,1.88,0,0,1-3.63.91.93.93,0,0,0-.89-.59H4.78a.93.93,0,0,0-.93,1.08A5.63,5.63,0,0,0,14.95,18,5.75,5.75,0,0,0,9.18,13.12ZM.94,11.25H20.62a5.63,5.63,0,1,0-5.52-6.7A.92.92,0,0,0,16,5.62H18A.92.92,0,0,0,18.84,5a1.88,1.88,0,0,1,3.63.91,2,2,0,0,1-2,1.56H.94A.94.94,0,0,0,0,8.43v1.87A.94.94,0,0,0,.94,11.25Zm22.5,1.87H14.28a7.41,7.41,0,0,1,2.33,3.75h6.83A2.81,2.81,0,1,1,21,21.07a1,1,0,0,0-.85-.45h-2a.94.94,0,0,0-.9,1.24,6.55,6.55,0,1,0,6.16-8.74Z"/></g></g></svg>