<svg xmlns="http://www.w3.org/2000/svg" viewBox="0 0 20 26.67"><defs><style>.cls-1{fill:#565656;}</style></defs><title>Recurso 5</title><g id="Capa_2" data-name="Capa 2"><g id="menu-menu"><g id="Capa_15" data-name="Capa 15"><path class="cls-1" d="M17.5,3.33H13.33a3.33,3.33,0,1,0-6.67,0H2.5A2.5,2.5,0,0,0,0,5.83V24.17a2.5,2.5,0,0,0,2.5,2.5h15a2.5,2.5,0,0,0,2.5-2.5V5.83A2.5,2.5,0,0,0,17.5,3.33ZM5,22.08a1.25,1.25,0,1,1,1.25-1.25A1.25,1.25,0,0,1,5,22.08Zm0-5a1.25,1.25,0,1,1,1.25-1.25A1.25,1.25,0,0,1,5,17.08Zm0-5a1.25,1.25,0,1,1,1.25-1.25A1.25,1.25,0,0,1,5,12.08Zm5-10A1.25,1.25,0,1,1,8.75,3.33,1.25,1.25,0,0,1,10,2.08Zm6.67,19.17a.42.42,0,0,1-.42.42H8.75a.42.42,0,0,1-.42-.42v-.83A.42.42,0,0,1,8.75,20h7.5a.42.42,0,0,1,.42.42Zm0-5a.42.42,0,0,1-.42.42H8.75a.42.42,0,0,1-.42-.42v-.83A.42.42,0,0,1,8.75,15h7.5a.42.42,0,0,1,.42.42Zm0-5a.42.42,0,0,1-.42.42H8.75a.42.42,0,0,1-.42-.42v-.83A.42.42,0,0,1,8.75,10h7.5a.42.42,0,0,1,.42.42Z"/></g></g></g></svg>