<svg xmlns="http://www.w3.org/2000/svg" viewBox="0 0 40 35"><defs><style>.cls-1{fill:#2f2e2d;}</style></defs><title>Recurso 12</title><g id="Capa_2" data-name="Capa 2"><g id="mapa"><g id="Capa_6" data-name="Capa 6"><path class="cls-1" d="M1.43,6.43H38.57A1.43,1.43,0,0,0,40,5V1.43A1.43,1.43,0,0,0,38.57,0H1.43A1.43,1.43,0,0,0,0,1.43V5A1.43,1.43,0,0,0,1.43,6.43Zm0,14.29H38.57A1.43,1.43,0,0,0,40,19.29V15.71a1.43,1.43,0,0,0-1.43-1.43H1.43A1.43,1.43,0,0,0,0,15.71v3.57A1.43,1.43,0,0,0,1.43,20.71ZM1.43,35H38.57A1.43,1.43,0,0,0,40,33.57V30a1.43,1.43,0,0,0-1.43-1.43H1.43A1.43,1.43,0,0,0,0,30v3.57A1.43,1.43,0,0,0,1.43,35Z"/></g></g></g></svg>