<svg xmlns="http://www.w3.org/2000/svg" viewBox="0 0 25 18.75"><defs><style>.cls-1{fill:#565656;}</style></defs><title>Recurso 2</title><g id="Capa_2" data-name="Capa 2"><g id="menu-menu"><g id="Capa_15" data-name="Capa 15"><g id="Capa_16" data-name="Capa 16"><path class="cls-1" d="M24.53,6.19a.29.29,0,0,1,.47.23v10a2.34,2.34,0,0,1-2.34,2.34H2.34A2.34,2.34,0,0,1,0,16.41v-10A.29.29,0,0,1,.47,6.2C1.57,7,3,8.12,8,11.74c1,.75,2.77,2.33,4.5,2.32S16,12.47,17,11.74C22,8.12,23.43,7,24.53,6.19Zm-12,6.31c1.13,0,2.76-1.43,3.58-2,6.48-4.7,7-5.11,8.47-6.28A1.17,1.17,0,0,0,25,3.27V2.34A2.34,2.34,0,0,0,22.66,0H2.34A2.34,2.34,0,0,0,0,2.34v.93a1.18,1.18,0,0,0,.45.92c1.49,1.17,2,1.58,8.47,6.28.82.6,2.45,2,3.58,2Z"/></g></g></g></g></svg>