<svg xmlns="http://www.w3.org/2000/svg" viewBox="0 0 78.46 78.46"><defs><style>.cls-1,.cls-2{fill:none;stroke-miterlimit:10;}.cls-1{stroke:#565656;}.cls-2{stroke:#515151;}</style></defs><title>Recurso 19</title><g id="Capa_2" data-name="Capa 2"><g id="menu-menu"><circle class="cls-1" cx="39.23" cy="39.23" r="38.73"/><path class="cls-2" d="M39.33,43C48.64,43,54,36.86,54,29A14.44,14.44,0,0,0,39.33,14.83,14.44,14.44,0,0,0,24.64,29c0,7.61,4.55,14,14.69,14"/><path class="cls-2" d="M11.74,67.31A9.61,9.61,0,0,0,22.34,63a26.42,26.42,0,0,0,4.44-10.9c.34-1,2.05-7.27,9.23-7.27s11.62-.33,15,6.28,5.13,15.52,14.36,16.51"/></g></g></svg>