<svg xmlns="http://www.w3.org/2000/svg" viewBox="0 0 51.65 51.65"><defs><style>.cls-1{fill:#b72922;}.cls-2{fill:#fff;}.cls-3{fill:#a7a7a7;}</style></defs><title>noseñalplujaRecurso 10</title><g id="Capa_2" data-name="Capa 2"><g id="Capa_1-2" data-name="Capa 1"><circle class="cls-1" cx="25.82" cy="25.82" r="25.82"/><circle class="cls-2" cx="25.82" cy="25.82" r="22.11"/><path class="cls-3" d="M35.2,18.32h-.09a4.58,4.58,0,0,0,.09-.95,4.67,4.67,0,0,0-8.26-3,6.54,6.54,0,0,0-12.36,3,6.66,6.66,0,0,0,.12,1.24,5.61,5.61,0,0,0,1.75,10.95H35.2a5.62,5.62,0,0,0,0-11.25ZM16,32.75c-.75,2.6-2.34,3.3-2.34,5.14a2.82,2.82,0,1,0,5.63,0c0-1.84-1.59-2.53-2.34-5.14A.48.48,0,0,0,16,32.75Zm9.38,0c-.75,2.6-2.34,3.3-2.34,5.14a2.82,2.82,0,1,0,5.63,0c0-1.84-1.59-2.53-2.34-5.14A.48.48,0,0,0,25.36,32.75Zm9.37,0c-.75,2.6-2.34,3.3-2.34,5.14a2.82,2.82,0,1,0,5.63,0c0-1.84-1.59-2.53-2.34-5.14A.48.48,0,0,0,34.73,32.75Z"/><polygon class="cls-1" points="40.43 8.45 7.67 39.95 10.41 43.08 43.03 11.19 40.43 8.45"/></g></g></svg>