<svg xmlns="http://www.w3.org/2000/svg" viewBox="0 0 20.05 19.15"><defs><style>.cls-1{fill:#dddc2e;stroke:#565656;stroke-miterlimit:10;stroke-width:0.05px;}</style></defs><title>Recurso 18</title><g id="Capa_2" data-name="Capa 2"><g id="mapa"><g id="Capa_12" data-name="Capa 12"><path class="cls-1" d="M19,6.42l-5.46-.8L11.1.69A1.2,1.2,0,0,0,9,.69L6.51,5.63,1,6.42a1.19,1.19,0,0,0-.66,2l4,3.84L3.4,17.73a1.2,1.2,0,0,0,1.18,1.4A1.18,1.18,0,0,0,5.14,19L10,16.43,14.91,19a1.19,1.19,0,0,0,1.73-1.26l-.93-5.43,4-3.84a1.19,1.19,0,0,0-.66-2Z"/></g></g></g></svg>