<svg xmlns="http://www.w3.org/2000/svg" viewBox="0 0 51.65 51.65"><defs><style>.cls-1{fill:#b72922;}.cls-2{fill:#fff;}.cls-3{fill:#a7a7a7;}</style></defs><title>noseñalRecurso 5</title><g id="Capa_2" data-name="Capa 2"><g id="Capa_2-2" data-name="Capa 2"><circle class="cls-1" cx="25.82" cy="25.82" r="25.82"/><circle class="cls-2" cx="25.82" cy="25.82" r="22.11"/><path class="cls-3" d="M20,25.68H11.76a.94.94,0,0,0-.94.94v1.87a.94.94,0,0,0,.94.94h8.33a2,2,0,0,1,2,1.56,1.88,1.88,0,0,1-3.63.91.93.93,0,0,0-.89-.59H15.61a.93.93,0,0,0-.93,1.08,5.63,5.63,0,0,0,11.1-1.82A5.75,5.75,0,0,0,20,25.68Zm-8.24-1.87H31.45a5.63,5.63,0,1,0-5.52-6.7.92.92,0,0,0,.93,1.07h1.92a.92.92,0,0,0,.89-.59,1.88,1.88,0,0,1,3.63.91,2,2,0,0,1-2,1.56H11.76a.94.94,0,0,0-.94.94v1.87A.94.94,0,0,0,11.76,23.81Zm22.5,1.87H25.1a7.41,7.41,0,0,1,2.33,3.75h6.83a2.81,2.81,0,1,1-2.44,4.2,1,1,0,0,0-.85-.45H29a.94.94,0,0,0-.9,1.24,6.55,6.55,0,1,0,6.16-8.74Z"/><polygon class="cls-1" points="40.43 8.45 7.67 39.95 10.41 43.08 43.03 11.19 40.43 8.45"/></g></g></svg>